<?xml version="1.0" encoding="UTF-8"?>
<svg width="48px" height="38px" viewBox="0 0 48 38" version="1.1" xmlns="http://www.w3.org/2000/svg" xmlns:xlink="http://www.w3.org/1999/xlink">
    <!-- Generator: Sketch 64 (93537) - https://sketch.com -->
    <title>Group 5</title>
    <desc>Created with Sketch.</desc>
    <g id="Phase-2-Onboarding" stroke="none" stroke-width="1" fill="none" fill-rule="evenodd">
        <g id="Group-5" fill="#1E2022" fill-rule="nonzero">
            <path d="M46.2857143,6 C47.2325265,6 48,5.40307617 48,4.66666667 L48,1.33333333 C48,0.596923828 47.2325265,0 46.2857143,0 L1.71428571,0 C0.767473493,0 0,0.596923828 0,1.33333333 L0,4.66666667 C0,5.40307617 0.767473493,6 1.71428571,6 L46.2857143,6 Z" id="Path"></path>
            <path d="M28.9836066,22 C29.9252449,22 30.6885246,21.4030762 30.6885246,20.6666667 L30.6885246,17.3333333 C30.6885246,16.5969238 29.9252449,16 28.9836066,16 L1.70491803,16 C0.763279649,16 0,16.5969238 0,17.3333333 L0,20.6666667 C0,21.4030762 0.763279649,22 1.70491803,22 L28.9836066,22 Z" id="Path"></path>
            <path d="M46.2857143,38 C47.2325265,38 48,37.4030762 48,36.6666667 L48,33.3333333 C48,32.5969238 47.2325265,32 46.2857143,32 L1.71428571,32 C0.767473493,32 0,32.5969238 0,33.3333333 L0,36.6666667 C0,37.4030762 0.767473493,38 1.71428571,38 L46.2857143,38 Z" id="Path"></path>
        </g>
    </g>
</svg>